<svg width="28" height="28" viewBox="0 0 28 28" fill="none" xmlns="http://www.w3.org/2000/svg">
<rect width="28" height="28" fill="#FF7700"/>
<path d="M0 13.4372C0 7.10553 0 3.92563 1.9548 1.95578C3.93772 1.34185e-07 7.10196 0 13.4445 0H14.5696C20.898 0 24.0763 1.34185e-07 26.0452 1.95578C28 3.91156 28 7.10553 28 13.4372V14.5628C28 20.8945 28 24.0744 26.0452 26.0442C24.0904 28 20.898 28 14.5696 28H13.4445C7.11602 28 3.93772 28 1.96886 26.0442C0 24.0744 0 20.9085 0 14.5628V13.4372Z" fill="#FF7700"/>
<path fill-rule="evenodd" clip-rule="evenodd" d="M17.5044 12.4485C16.6136 13.3371 15.3692 13.9013 13.9976 13.9013C12.6402 13.9013 11.3817 13.3371 10.4909 12.4485C9.60009 11.5599 9.03449 10.3329 9.03449 8.95063C9.03449 7.5684 9.60009 6.32722 10.4909 5.45275C11.3817 4.56417 12.6261 4 13.9976 4C15.3692 4 16.6136 4.56417 17.5044 5.45275C18.3952 6.34132 18.9608 7.58251 18.9608 8.95063C18.9608 10.3188 18.3952 11.5599 17.5044 12.4485ZM14.0118 6.67983C13.3896 6.67983 12.824 6.93371 12.414 7.34273C12.018 7.75176 11.7494 8.31594 11.7494 8.93653C11.7494 9.55712 12.0039 10.1213 12.414 10.5303C12.824 10.9393 13.3755 11.1932 14.0118 11.1932C14.634 11.1932 15.1996 10.9393 15.6096 10.5303C16.0197 10.1213 16.2742 9.57122 16.2742 8.93653C16.2742 8.31594 16.0197 7.75176 15.6096 7.34273C15.1996 6.93371 14.6481 6.67983 14.0118 6.67983ZM19.2436 13.9154L20.7 15.9041C20.7849 16.0028 20.7707 16.1298 20.5869 16.2144C19.3567 17.2299 17.9286 17.8787 16.4439 18.2313L19.5264 23.6474C19.6113 23.8166 19.5123 24 19.3285 24H16.3166C16.2176 24 16.1328 23.9295 16.1045 23.8449L13.9552 19.0494L11.8059 23.8449C11.7777 23.9436 11.6928 24 11.5938 24H8.58201C8.41233 24 8.29921 23.8025 8.38405 23.6474L11.4666 18.2313C9.98188 17.8787 8.55373 17.2017 7.32355 16.2144C7.23871 16.1298 7.22457 16.0028 7.29527 15.9041L8.75169 13.9154C8.83653 13.8166 9.00621 13.8025 9.10519 13.8872C10.4909 15.0578 12.1736 15.8195 13.9977 15.8195C15.8217 15.8195 17.5185 15.0578 18.8901 13.8872C18.9891 13.7884 19.1588 13.8025 19.2436 13.9154Z" fill="white"/>
</svg>
