<svg width="44" height="44" viewBox="0 0 44 44" fill="none" xmlns="http://www.w3.org/2000/svg">
<rect width="44" height="44" fill="#005FF9"/>
<path d="M26.2078 22C26.2078 22.8328 25.961 23.6469 25.4984 24.3394C25.0359 25.0318 24.3785 25.5715 23.6093 25.8902C22.8401 26.2089 21.9937 26.2923 21.1772 26.1298C20.3606 25.9673 19.6106 25.5663 19.0219 24.9774C18.4332 24.3886 18.0323 23.6383 17.8698 22.8215C17.7074 22.0047 17.7908 21.158 18.1094 20.3886C18.428 19.6192 18.9675 18.9616 19.6598 18.4989C20.352 18.0362 21.1659 17.7893 21.9984 17.7893C23.1144 17.7905 24.1844 18.2346 24.9735 19.024C25.7627 19.8134 26.2066 20.8836 26.2078 22ZM21.9984 8C19.8072 7.99958 17.6465 8.51383 15.6902 9.50135C13.734 10.4889 12.0368 11.9221 10.7355 13.6856C9.43416 15.449 8.56493 17.4936 8.19782 19.6545C7.83071 21.8154 7.97596 24.0323 8.62188 26.1269C9.2678 28.2214 10.3963 30.1349 11.9167 31.7134C13.437 33.2919 15.3066 34.4913 17.3749 35.215C19.4433 35.9386 21.6526 36.1664 23.825 35.8799C25.9975 35.5934 28.0723 34.8007 29.8825 33.5655L29.9225 33.5367L28.0364 31.344L28.0059 31.3648C25.8357 32.7601 23.2487 33.3589 20.6863 33.0591C18.124 32.7594 15.7449 31.5796 13.9551 29.7211C12.1652 27.8626 11.0754 25.4404 10.8716 22.8679C10.6677 20.2953 11.3625 17.7317 12.8373 15.6144C14.3122 13.497 16.4757 11.9571 18.9589 11.2573C21.4421 10.5575 24.091 10.7412 26.4539 11.7771C28.8168 12.8129 30.7472 14.6367 31.9159 16.9374C33.0845 19.2381 33.419 21.873 32.8623 24.3929C32.7991 24.9068 32.5468 25.3788 32.1545 25.7167C31.7623 26.0546 31.2582 26.2342 30.7407 26.2203C30.5036 26.2042 30.2721 26.141 30.0596 26.0345C29.8472 25.9279 29.658 25.7802 29.5032 25.5998C29.3484 25.4195 29.231 25.2101 29.1578 24.9839C29.0847 24.7577 29.0572 24.5192 29.0771 24.2823V22C29.0792 20.3583 28.5118 18.7668 27.4717 17.497C26.4315 16.2272 24.9831 15.3577 23.3736 15.037C21.764 14.7163 20.0931 14.9642 18.6459 15.7384C17.1988 16.5126 16.065 17.7651 15.438 19.2823C14.8111 20.7994 14.7299 22.4872 15.2083 24.0576C15.6866 25.6279 16.6949 26.9836 18.0611 27.8933C19.4272 28.8029 21.0666 29.2102 22.6995 29.0456C24.3324 28.881 25.8576 28.1548 27.0148 26.9907C27.3955 27.5858 27.9096 28.0838 28.5164 28.4453C29.1231 28.8067 29.8058 29.0216 30.5102 29.0729C30.635 29.0841 30.7615 29.0889 30.888 29.0889C31.9141 29.0861 32.9114 28.7487 33.7285 28.1279C34.5956 27.4506 35.2289 26.5186 35.5394 25.4628C35.5938 25.285 35.6995 24.875 35.6995 24.8734V24.8573C35.908 23.9195 36.0069 22.9606 35.9941 22C35.9899 18.2883 34.514 14.7298 31.8902 12.1052C29.2664 9.4806 25.709 8.00424 21.9984 8" fill="#FF9E00"/>
</svg>
