<svg width="44" height="44" viewBox="0 0 44 44" fill="none" xmlns="http://www.w3.org/2000/svg">
<g clip-path="url(#clip0_17496_290403)">
<rect width="43.9999" height="43.9999" transform="translate(43.9999 43.9999) rotate(-180)" fill="#0077FF"/>
<path d="M32.9538 59.6745C32.1366 61.01 30.1966 61.01 29.3794 59.6745L26.349 54.7223C25.7668 53.7707 24.541 53.4422 23.5609 53.9752L18.4604 56.7488C17.0849 57.4967 15.4049 56.5268 15.3649 54.9616L15.2166 49.1576C15.1881 48.0424 14.2908 47.1451 13.1756 47.1166L7.37161 46.9683C5.80643 46.9283 4.83646 45.2483 5.58443 43.8728L8.35802 38.7723C8.89097 37.7922 8.56252 36.5665 7.61095 35.9842L2.65869 32.9538C1.32319 32.1366 1.32319 30.1966 2.65869 29.3794L7.61095 26.349C8.56252 25.7668 8.89097 24.541 8.35803 23.5609L5.58443 18.4604C4.83646 17.0849 5.80643 15.4049 7.37161 15.3649L13.1756 15.2166C14.2908 15.1881 15.1882 14.2908 15.2166 13.1756L15.3649 7.3716C15.4049 5.80642 17.0849 4.83646 18.4604 5.58442L23.5609 8.35802C24.541 8.89096 25.7668 8.56252 26.349 7.61095L29.3794 2.65868C30.1966 1.32318 32.1366 1.32318 32.9538 2.65868L35.9842 7.61095C36.5665 8.56252 37.7922 8.89096 38.7723 8.35802L43.8728 5.58443C45.2483 4.83646 46.9283 5.80643 46.9683 7.37161L47.1166 13.1756C47.1451 14.2908 48.0424 15.1881 49.1576 15.2166L54.9616 15.3649C56.5268 15.4049 57.4967 17.0849 56.7488 18.4604L53.9752 23.5609C53.4422 24.541 53.7707 25.7668 54.7223 26.349L59.6745 29.3794C61.01 30.1966 61.01 32.1366 59.6745 32.9538L54.7223 35.9842C53.7707 36.5665 53.4422 37.7922 53.9752 38.7723L56.7488 43.8728C57.4967 45.2483 56.5268 46.9283 54.9616 46.9683L49.1576 47.1166C48.0424 47.1451 47.1451 48.0424 47.1166 49.1576L46.9683 54.9616C46.9283 56.5268 45.2483 57.4967 43.8728 56.7488L38.7723 53.9752C37.7922 53.4422 36.5665 53.7707 35.9842 54.7223L32.9538 59.6745Z" fill="#FF9500"/>
<path d="M19.9047 27.238C18.8687 27.238 17.856 26.9308 16.9946 26.3552C16.1332 25.7797 15.4618 24.9616 15.0654 24.0045C14.6689 23.0473 14.5652 21.9941 14.7673 20.978C14.9694 19.9619 15.4683 19.0286 16.2008 18.296C16.9334 17.5635 17.8667 17.0646 18.8828 16.8625C19.8989 16.6604 20.9521 16.7641 21.9092 17.1606C22.8664 17.557 23.6845 18.2284 24.26 19.0898C24.8356 19.9512 25.1428 20.9639 25.1428 21.9999C25.1412 23.3887 24.5888 24.7201 23.6069 25.7021C22.6249 26.6841 21.2935 27.2364 19.9047 27.238V27.238ZM19.9047 20.4285C19.5939 20.4285 19.2901 20.5207 19.0317 20.6933C18.7733 20.866 18.5718 21.1114 18.4529 21.3986C18.334 21.6857 18.3029 22.0017 18.3635 22.3065C18.4241 22.6113 18.5738 22.8913 18.7936 23.1111C19.0133 23.3309 19.2933 23.4805 19.5981 23.5412C19.903 23.6018 20.2189 23.5707 20.5061 23.4517C20.7932 23.3328 21.0386 23.1314 21.2113 22.873C21.384 22.6146 21.4761 22.3107 21.4761 21.9999C21.4757 21.5833 21.31 21.1839 21.0154 20.8893C20.7208 20.5947 20.3213 20.429 19.9047 20.4285V20.4285Z" fill="white"/>
<path d="M33.5237 38.7618C32.4877 38.7618 31.475 38.4546 30.6136 37.8791C29.7522 37.3035 29.0808 36.4854 28.6844 35.5283C28.2879 34.5711 28.1842 33.5179 28.3863 32.5018C28.5884 31.4857 29.0873 30.5524 29.8198 29.8198C30.5524 29.0873 31.4857 28.5884 32.5018 28.3863C33.5179 28.1842 34.5711 28.2879 35.5283 28.6844C36.4854 29.0808 37.3035 29.7522 37.8791 30.6136C38.4546 31.475 38.7618 32.4877 38.7618 33.5237C38.7603 34.9125 38.2079 36.2439 37.2259 37.2259C36.2439 38.2079 34.9125 38.7603 33.5237 38.7618V38.7618ZM33.5237 31.9523C33.2129 31.9523 32.9091 32.0445 32.6507 32.2171C32.3923 32.3898 32.1909 32.6352 32.0719 32.9224C31.953 33.2095 31.9219 33.5255 31.9825 33.8303C32.0431 34.1351 32.1928 34.4151 32.4126 34.6349C32.6323 34.8547 32.9123 35.0043 33.2172 35.065C33.522 35.1256 33.838 35.0945 34.1251 34.9755C34.4122 34.8566 34.6577 34.6552 34.8303 34.3968C35.003 34.1384 35.0952 33.8345 35.0952 33.5237C35.0947 33.1071 34.929 32.7077 34.6344 32.4131C34.3398 32.1185 33.9404 31.9528 33.5237 31.9523V31.9523Z" fill="white"/>
<path d="M18.0719 37.4523C17.7018 37.4524 17.3404 37.3406 17.0351 37.1314C16.7298 36.9222 16.4949 36.6255 16.3615 36.2803C16.228 35.9352 16.2021 35.5577 16.2872 35.1975C16.3723 34.8373 16.5644 34.5113 16.8383 34.2624L34.1238 18.5482C34.4836 18.2213 34.9585 18.0507 35.4441 18.0739C35.9296 18.0971 36.3861 18.3122 36.7131 18.6719C37.0402 19.0316 37.2109 19.5064 37.1879 19.992C37.1649 20.4776 36.9499 20.9342 36.5904 21.2613L19.3046 36.9756C18.9676 37.2827 18.5279 37.4528 18.0719 37.4523Z" fill="white"/>
</g>
<defs>
<clipPath id="clip0_17496_290403">
<rect width="43.9999" height="43.9999" fill="white" transform="translate(43.9999 43.9999) rotate(-180)"/>
</clipPath>
</defs>
</svg>
