<svg width="44" height="44" viewBox="0 0 44 44" fill="none" xmlns="http://www.w3.org/2000/svg">
<rect width="44" height="44" fill="#3F8AE0"/>
<rect width="44" height="44" fill="#3F8AE0"/>
<path d="M14 14.5C14 10.0817 17.5817 6.5 22 6.5C26.4183 6.5 30 10.0817 30 14.5H27.5C27.5 11.4624 25.0376 9 22 9C18.9624 9 16.5 11.4624 16.5 14.5H14Z" fill="white"/>
<path d="M28.5 20C27.6716 20 27 20.6716 27 21.5C27 22.3284 27.6716 23 28.5 23C29.3284 23 30 22.3284 30 21.5C30 20.6716 29.3284 20 28.5 20Z" fill="white"/>
<path d="M14 21.5C14 20.6716 14.6716 20 15.5 20C16.3284 20 17 20.6716 17 21.5C17 22.3284 16.3284 23 15.5 23C14.6716 23 14 22.3284 14 21.5Z" fill="white"/>
<path fill-rule="evenodd" clip-rule="evenodd" d="M12.8555 14.5015L30.8722 14.5C32.6553 14.5 33.3018 14.6857 33.9537 15.0343C34.6055 15.3829 35.1171 15.8945 35.4657 16.5463C35.8143 17.1982 36 17.8447 36 19.6278V27.6564C36 30.7281 35.6287 32.1037 34.9315 33.4074C34.2342 34.7111 33.2111 35.7342 31.9074 36.4315C30.6037 37.1287 29.2281 37.5 26.1564 37.5H17.8436C14.7719 37.5 13.3963 37.1287 12.0926 36.4315C10.7889 35.7342 9.76576 34.7111 9.06853 33.4074C8.3713 32.1037 8 30.7281 8 27.6564V19.6278C8 17.8447 8.18565 17.1982 8.53427 16.5463C8.88288 15.8945 9.39446 15.3829 10.0463 15.0343C10.6639 14.704 11.2767 14.52 12.8555 14.5015ZM12.9043 17.0007L12.5169 17.007C11.7575 17.0275 11.4927 17.0958 11.2253 17.2388C11.0091 17.3544 10.8544 17.5091 10.7388 17.7253L10.678 17.8503C10.5574 18.1287 10.5073 18.4809 10.5007 19.4043L10.5 27.6564C10.5 30.1164 10.7164 31.1875 11.2731 32.2284C11.7373 33.0964 12.4036 33.7627 13.2716 34.2269C14.222 34.7352 15.1975 34.9598 17.2324 34.995L17.8436 35H26.1564L26.7676 34.995C28.8025 34.9598 29.778 34.7352 30.7284 34.2269C31.5964 33.7627 32.2627 33.0964 32.7269 32.2284C33.2352 31.278 33.4598 30.3025 33.495 28.2676L33.5 27.6564V19.6278C33.5 18.3795 33.4372 18.0544 33.2612 17.7253C33.1456 17.5091 32.9909 17.3544 32.7747 17.2388L32.6497 17.178C32.3713 17.0574 32.0191 17.0073 31.0957 17.0007H12.9043Z" fill="white"/>
</svg>
