<svg width="150" height="150" viewBox="0 0 150 150" fill="none" xmlns="http://www.w3.org/2000/svg">
<g clip-path="url(#clip0_1_55)">
<rect width="150" height="150" fill="#AB76ED"/>
<path fill-rule="evenodd" clip-rule="evenodd" d="M75 71.9283C82.535 71.9283 85.7143 79.1955 89.2858 86.2141C92.8572 93.2327 96.4293 96.6424 96.4286 100.487C96.4272 107.903 89.2858 107.643 85.7143 107.643C82.1429 107.643 80.357 106.571 74.9999 106.571C69.6428 106.571 67.8572 107.643 64.2858 107.643L63.527 107.641C59.7937 107.611 53.5715 107.166 53.5715 100.487C53.5715 96.9027 57.1429 93.286 60.7143 86.2141C64.2858 79.1421 67.465 71.9283 75 71.9283Z" fill="white" stroke="white" stroke-width="8"/>
<path d="M97.9428 51.7368C99.0825 45.5662 96.5303 39.9789 92.2422 39.2572C87.9542 38.5354 83.5542 42.9525 82.4144 49.1231C81.2747 55.2936 83.8269 60.8809 88.115 61.6027C92.403 62.3244 96.803 57.9073 97.9428 51.7368Z" fill="white" stroke="white" stroke-width="5"/>
<path d="M67.9308 49.1245C66.7911 42.954 62.391 38.5369 58.103 39.2586C53.815 39.9804 51.2628 45.5677 52.4025 51.7383C53.5422 57.9088 57.9422 62.3259 62.2303 61.6042C66.5183 60.8824 69.0705 55.2951 67.9308 49.1245Z" fill="white" stroke="white" stroke-width="5"/>
<path d="M48.5485 71.5666C46.005 66.4824 40.9953 63.6421 37.3589 65.2227C33.7225 66.8032 32.8366 72.206 35.3801 77.2902C37.9236 82.3744 42.9333 85.2146 46.5697 83.6341C50.2061 82.0536 51.092 76.6508 48.5485 71.5666Z" fill="white" stroke="white" stroke-width="5"/>
<path d="M114.62 78.6796C117.163 73.0305 116.277 67.0274 112.641 65.2712C109.005 63.5151 103.995 66.6709 101.452 72.32C98.908 77.9691 99.794 83.9722 103.43 85.7284C107.067 87.4845 112.076 84.3287 114.62 78.6796Z" fill="white" stroke="white" stroke-width="5"/>
<g clip-path="url(#clip1_1_55)">
<rect width="150" height="150" fill="#0077FF"/>
<g clip-path="url(#clip2_1_55)">
<path fill-rule="evenodd" clip-rule="evenodd" d="M75 83.8568C87.9602 83.8568 93.4286 96.3562 99.5715 108.428C105.714 120.5 111.858 126.365 111.857 132.978C111.855 145.733 99.5715 158.361 93.4286 158.361C87.2857 158.361 84.214 172.612 74.9998 172.612C65.7856 172.612 62.7143 158.361 56.5715 158.361L55.2664 158.358C48.8451 158.307 38.1429 144.465 38.1429 132.978C38.1429 126.813 44.2857 120.592 50.4286 108.428C56.5715 96.2645 62.0398 83.8568 75 83.8568Z" fill="#FFC700" stroke="#FFC700" stroke-width="13.76"/>
<path d="M114.462 49.1273C116.422 38.514 112.032 28.9038 104.657 27.6624C97.2812 26.421 89.7132 34.0184 87.7528 44.6318C85.7925 55.2451 90.1823 64.8553 97.5577 66.0967C104.933 67.3381 112.501 59.7407 114.462 49.1273Z" fill="#FFC700" stroke="#FFC700" stroke-width="8.6"/>
<path d="M62.8411 44.6342C60.8808 34.0209 53.3127 26.4234 45.9372 27.6648C38.5618 28.9063 34.172 38.5164 36.1324 49.1298C38.0927 59.7431 45.6608 67.3405 53.0362 66.0991C60.4116 64.8577 64.8014 55.2475 62.8411 44.6342Z" fill="#FFC700" stroke="#FFC700" stroke-width="8.6"/>
<path d="M29.5034 83.2345C25.1286 74.4897 16.5119 69.6044 10.2573 72.3229C4.00278 75.0414 2.47895 84.3343 6.85376 93.0791C11.2286 101.824 19.8454 106.709 26.0999 103.991C32.3544 101.272 33.8783 91.9793 29.5034 83.2345Z" fill="#FFC700" stroke="#FFC700" stroke-width="8.6"/>
<path d="M143.146 95.4688C147.521 85.7524 145.997 75.427 139.743 72.4065C133.488 69.3859 124.871 74.814 120.497 84.5304C116.122 94.2468 117.646 104.572 123.9 107.593C130.155 110.613 138.772 105.185 143.146 95.4688Z" fill="#FFC700" stroke="#FFC700" stroke-width="8.6"/>
</g>
</g>
</g>
<defs>
<clipPath id="clip0_1_55">
<rect width="150" height="150" fill="white"/>
</clipPath>
<clipPath id="clip1_1_55">
<rect width="150" height="150" fill="white"/>
</clipPath>
<clipPath id="clip2_1_55">
<rect width="172" height="172" fill="white" transform="translate(-11 4)"/>
</clipPath>
</defs>
</svg>
