<svg width="44" height="44" viewBox="0 0 44 44" fill="none" xmlns="http://www.w3.org/2000/svg">
<g clip-path="url(#clip0_1064_27773)">
<rect width="44" height="44" fill="#0077FF"/>
<path d="M-0.355885 28.1597C-0.355885 20.903 -0.355885 17.2725 1.89915 15.015C4.15418 12.7576 7.75969 12.7534 15.0132 12.7534H29.0784C36.3319 12.7534 39.9586 12.7534 42.2095 15.0066C44.4602 17.2597 44.4645 20.8945 44.4645 28.1513V42.2397C44.4645 49.5009 44.4645 53.1314 42.2095 55.3888C39.9544 57.6461 36.3319 57.6419 29.0784 57.6419H15.0132C7.75969 57.6419 4.13719 57.6419 1.88216 55.3888C-0.372872 53.1356 -0.355885 49.5009 -0.355885 42.2397V28.1597Z" fill="#00EDC5"/>
<path d="M21.9438 34.0098L23.4259 35.6338L23.5278 35.5445L23.9525 35.1789C24.3771 34.8558 24.9717 34.3839 25.7828 33.827C28.0454 32.2844 30.4501 30.9619 32.9641 29.8776C41.3208 26.2599 50.5429 25.1336 59.5232 26.6339L60.2073 22.3275C50.4197 20.6979 40.3707 21.9244 31.2611 25.8602C28.4891 27.0564 25.837 28.5141 23.3409 30.2134C22.4321 30.8384 21.7272 31.374 21.2473 31.7609L20.6909 32.22L20.5423 32.356C20.5261 32.368 20.5105 32.3807 20.4956 32.3943C20.4956 32.3943 20.4743 32.4156 21.9438 34.0098ZM-15.5169 26.6127C-6.02116 24.5636 2.98195 26.7997 9.70883 29.631C12.4786 30.7994 15.1524 32.1839 17.7055 33.7717C18.6525 34.3626 19.4042 34.8643 19.8841 35.2129L20.4361 35.638L20.5678 35.7358H20.5975L21.9395 34.0353L23.2815 32.3348L23.2305 32.3008C23.1923 32.2668 23.1328 32.2243 23.0607 32.169L22.4151 31.7014C21.863 31.3103 21.0562 30.7576 20.0285 30.1157C17.2738 28.3906 14.3885 26.8839 11.399 25.6094C4.21351 22.5868 -5.74515 20.0446 -16.4343 22.3487L-15.5169 26.6127ZM21.9438 34.0098L20.6018 35.7103L22.0542 36.8496L23.4259 35.6338L21.9438 34.0098Z" fill="white"/>
</g>
<defs>
<clipPath id="clip0_1064_27773">
<rect width="44" height="44" fill="white"/>
</clipPath>
</defs>
</svg>
