<svg width="44" height="44" viewBox="0 0 44 44" fill="none" xmlns="http://www.w3.org/2000/svg">
<rect width="44" height="44" fill="#194AF4"/>
<path fill-rule="evenodd" clip-rule="evenodd" d="M29.1667 27.0804C29.1667 30.6967 26.2849 33.3216 21.709 33.3216C18.7479 33.3216 16.4434 31.8583 14.7233 30.1844L16.2543 28.4932C17.6858 29.8569 19.3714 31.183 21.6788 31.183C24.243 31.183 27.0079 29.7458 27.0079 27.1628C27.0079 25.0199 25.3022 23.6216 21.722 22.5176C17.6412 21.268 15.569 19.5767 15.569 16.3963C15.569 13.2475 18.2343 10.6631 22.0308 10.6631C24.8665 10.6631 26.6429 11.8724 28.3686 13.4179L26.865 15.0875C25.3498 13.7455 23.9069 12.8363 22.1361 12.8363C19.9399 12.8363 17.7768 14.2519 17.7768 16.2909C17.7768 18.1395 18.8374 19.3155 22.5835 20.4627C26.015 21.5204 29.1667 23.1583 29.1667 27.0804Z" fill="white"/>
</svg>
