<svg width="44" height="44" viewBox="0 0 44 44" fill="none" xmlns="http://www.w3.org/2000/svg">
<rect width="44" height="44" fill="white"/>
<path d="M27.0543 18.8464C27.1914 18.8464 27.3602 18.8148 27.4973 18.7937L27.55 18.8781C27.4973 19.2683 27.6977 19.4581 27.8875 19.6901C28.8156 20.6921 30.271 21.4514 32.0323 20.5022C32.7916 21.1983 32.7916 23.5607 32.0323 24.2568C30.271 23.3076 28.8156 24.0564 27.8875 25.0688C27.6977 25.2903 27.4973 25.4907 27.55 25.8809L27.4973 25.9653C27.2246 25.8962 26.9397 25.8903 26.6644 25.9481C26.3891 26.0059 26.1307 26.1259 25.9088 26.2989C25.687 26.4719 25.5076 26.6933 25.3845 26.9462C25.2613 27.1992 25.1976 27.4769 25.1981 27.7582C25.1981 28.7706 26.0208 29.5722 27.0543 29.5722C28.0351 29.5722 28.8683 28.7601 28.8683 27.7582C28.8683 27.4418 28.7839 27.1676 28.6468 26.9145L28.7312 26.8301C28.9843 26.8934 29.1214 26.7563 29.364 26.5032C29.8702 25.9969 30.4292 25.5751 31.1569 26.0497C32.1694 26.7246 31.642 27.9797 30.8616 29.0449C29.8096 30.5205 28.3618 31.6685 26.6852 32.3564C25.7439 32.6847 24.7204 32.6921 23.7744 32.3775V34.4552C27.0438 35.3833 30.0706 33.4427 32.3697 30.3948C33.4877 28.9183 34.4896 27.0832 33.3506 25.2692L33.4349 25.1638C33.7408 25.1848 33.9623 24.995 34.131 24.6786C34.5159 23.9753 34.7177 23.1865 34.7177 22.3848C34.7177 21.583 34.5159 20.7942 34.131 20.0909C33.9623 19.8061 33.7935 19.5847 33.4349 19.6058L33.3506 19.5003C34.4896 17.6758 33.4877 15.8301 32.3697 14.3747C30.2921 11.6221 27.7504 10.1139 25.4407 10.1139C24.8002 10.1111 24.1654 10.2357 23.5735 10.4805C22.9815 10.7253 22.4442 11.0854 21.9927 11.5398C21.5413 11.9942 21.1847 12.5339 20.9437 13.1274C20.7028 13.7209 20.5823 14.3564 20.5893 14.997V17.043C20.5893 18.4667 21.1483 19.1945 22.0975 20.228L22.9096 21.1034C23.1627 21.3776 23.3314 21.578 23.7216 21.578L23.806 21.6623C23.7216 21.8522 23.6689 22.1053 23.6689 22.3373C23.6689 23.3392 24.5126 24.1829 25.4829 24.1829C26.527 24.1829 27.3285 23.3392 27.3285 22.3373C27.3263 22.0472 27.2549 21.7619 27.1203 21.5049C26.9858 21.248 26.7919 21.0268 26.5547 20.8597C26.3176 20.6927 26.044 20.5846 25.7567 20.5445C25.4694 20.5043 25.1767 20.5332 24.9028 20.6288L24.8079 20.5444C24.8079 20.1542 24.6181 19.9854 24.365 19.7323L23.5213 18.8675C22.9307 18.2453 22.6248 17.6863 22.6248 16.8426V15.0075C22.6248 13.9529 22.9939 13.1091 23.7216 12.6029C24.4704 12.0756 25.5673 12.0123 26.6852 12.4025C28.3586 13.0959 29.8051 14.2428 30.8616 15.7141C31.642 16.7688 32.1799 18.0343 31.178 18.7093C30.5768 19.0995 30.0179 18.9308 29.3746 18.2558C29.1214 17.9816 28.9527 17.8972 28.7312 17.9183L28.6468 17.834C28.7945 17.5808 28.8683 17.3066 28.8683 17.0008C28.8662 16.6374 28.7563 16.2828 28.5524 15.982C28.3485 15.6812 28.06 15.4477 27.7232 15.311C27.3865 15.1744 27.0168 15.1408 26.661 15.2145C26.3052 15.2882 25.9792 15.466 25.7245 15.7251C25.4698 15.9843 25.2977 16.3132 25.2302 16.6703C25.1626 17.0274 25.2026 17.3964 25.345 17.7307C25.4875 18.065 25.7259 18.3495 26.0302 18.5482C26.3345 18.7468 26.691 18.8506 27.0543 18.8464ZM17.0879 25.902C16.9403 25.902 16.7715 25.9231 16.6344 25.9547L16.5817 25.8704C16.6344 25.4801 16.4446 25.2798 16.2442 25.0583C15.3161 24.0458 13.8712 23.2865 12.0994 24.2462C11.3506 23.5396 11.3506 21.1877 12.0994 20.4917C13.8712 21.4409 15.3161 20.6815 16.2442 19.6796C16.4446 19.4476 16.6344 19.2577 16.5817 18.8675L16.6344 18.7831C16.7821 18.8042 16.9508 18.8359 17.0879 18.8359C18.1215 18.8359 18.9335 17.9922 18.9335 16.9902C18.9335 16.5035 18.7402 16.0368 18.3961 15.6926C18.0519 15.3485 17.5852 15.1552 17.0985 15.1552C16.6118 15.1552 16.145 15.3485 15.8009 15.6926C15.4567 16.0368 15.2634 16.5035 15.2634 16.9902C15.2634 17.2961 15.3477 17.5703 15.4954 17.834L15.411 17.9078C15.1579 17.8551 15.0208 17.9922 14.7677 18.2453C14.2615 18.7515 13.7025 19.1734 12.9748 18.6882C11.9623 18.0238 12.4897 16.7582 13.2806 15.693C14.3312 14.2228 15.7751 13.0787 17.4465 12.392C18.3867 12.0603 19.4102 12.0492 20.3573 12.3603V10.3038C17.0879 9.38624 14.0611 11.3162 11.7619 14.3642C10.644 15.8407 9.64211 17.6652 10.7811 19.4898L10.6968 19.5952C10.3909 19.5741 10.1694 19.764 10.0007 20.0804C9.61575 20.7836 9.41399 21.5725 9.41399 22.3742C9.41399 23.1759 9.61575 23.9648 10.0007 24.6681C10.1694 24.9528 10.3382 25.1743 10.6968 25.1427L10.7811 25.2587C9.64211 27.0727 10.644 28.9288 11.7619 30.3737C13.8396 33.1158 16.3813 34.6345 18.6804 34.6345C19.3246 34.6402 19.9633 34.517 20.5591 34.2722C21.1549 34.0273 21.6957 33.6658 22.1497 33.2088C22.6038 32.7519 22.9618 32.2087 23.2027 31.6114C23.4437 31.014 23.5628 30.3744 23.5529 29.7304V27.6949C23.5529 26.2606 22.9939 25.5329 22.0342 24.4993L21.2221 23.6345C20.969 23.3498 20.8003 23.1494 20.4101 23.1494L20.3257 23.0756C20.4101 22.8752 20.4733 22.6221 20.4733 22.4006C20.4733 21.3881 19.6296 20.5549 18.6488 20.5549C17.6152 20.5549 16.8032 21.3987 16.8032 22.4006C16.8048 22.6919 16.8762 22.9786 17.0114 23.2367C17.1465 23.4947 17.3415 23.7167 17.5801 23.884C17.8186 24.0513 18.0937 24.159 18.3824 24.1981C18.6711 24.2373 18.9649 24.2068 19.2394 24.1091L19.3238 24.1935C19.3238 24.5837 19.5136 24.7524 19.7667 25.0056L20.6104 25.8704C21.201 26.4821 21.5069 27.041 21.5069 27.8847V29.7304C21.5069 30.7956 21.1378 31.6393 20.4101 32.1455C19.6613 32.6728 18.5644 32.7361 17.4465 32.3354C15.7744 31.6449 14.3281 30.5017 13.2701 29.0343C12.4897 27.9797 11.9623 26.7141 12.9642 26.0391C13.5548 25.6489 14.1138 25.8071 14.7571 26.4821C15.0103 26.7668 15.179 26.8512 15.4005 26.8195L15.4849 26.9039C15.3477 27.157 15.2634 27.4312 15.2634 27.7476C15.2655 28.1106 15.3751 28.4647 15.5785 28.7654C15.7819 29.066 16.0698 29.2995 16.4059 29.4365C16.7421 29.5734 17.1112 29.6077 17.4668 29.5348C17.8223 29.4619 18.1483 29.2853 18.4035 29.0272C18.6586 28.7691 18.8315 28.4411 18.9003 28.0847C18.969 27.7284 18.9306 27.3596 18.7898 27.0251C18.649 26.6906 18.4121 26.4053 18.1092 26.2054C17.8063 26.0055 17.4509 25.8999 17.0879 25.902Z" fill="black"/>
</svg>
