<svg width="30" height="29" viewBox="0 0 30 29" fill="none" xmlns="http://www.w3.org/2000/svg">
<path d="M26.5559 21.4521C28.0658 21.4521 29.2898 20.2282 29.2898 18.7183V3.05954C29.2898 1.54969 28.0658 0.325716 26.5559 0.325716L2.73382 0.325714C1.22398 0.325714 3.23724e-06 1.54968 1.36893e-06 3.05953L0 18.7183C-1.31995e-07 20.2282 1.22397 21.4521 2.73382 21.4521H13.8886C13.8922 21.4558 13.8958 21.4594 13.8994 21.4631L20.963 28.5266C21.537 29.1007 22.5186 28.6941 22.5186 27.8823V21.4521H26.5559Z" fill="#FFCC4A"/>
<rect x="7.45508" y="13.7554" width="13.6603" height="1.52692" rx="0.76346" fill="#1B1B1B"/>
<rect x="7.45508" y="9.8179" width="13.6603" height="1.52692" rx="0.76346" fill="#1B1B1B"/>
<rect x="7.45508" y="6.28665" width="13.6603" height="1.52692" rx="0.76346" fill="#1B1B1B"/>
</svg>
