<svg width="101" height="98" viewBox="0 0 101 98" fill="none" xmlns="http://www.w3.org/2000/svg">
<circle cx="23.7874" cy="74.1947" r="23.7884" fill="#DADADA"/>
<path d="M74.2511 9.46352C74.4008 9.00287 75.0525 9.00287 75.2022 9.46353L76.1257 12.3059C76.1926 12.5119 76.3846 12.6514 76.6012 12.6514H79.5898C80.0742 12.6514 80.2756 13.2712 79.8837 13.5559L77.4659 15.3125C77.2906 15.4398 77.2173 15.6655 77.2842 15.8715L78.2078 18.7139C78.3575 19.1745 77.8302 19.5576 77.4384 19.2729L75.0205 17.5162C74.8453 17.3889 74.608 17.3889 74.4327 17.5162L72.0149 19.2729C71.623 19.5576 71.0958 19.1745 71.2455 18.7139L72.169 15.8715C72.2359 15.6655 72.1626 15.4398 71.9874 15.3125L69.5695 13.5559C69.1777 13.2712 69.3791 12.6514 69.8634 12.6514H72.852C73.0686 12.6514 73.2606 12.5119 73.3276 12.3059L74.2511 9.46352Z" fill="#141414"/>
<path d="M15.9636 51.9894C16.2358 52.2615 16.1112 52.7263 15.7395 52.8259L5.42988 55.5883C5.0581 55.688 4.71789 55.3478 4.81751 54.976L7.57995 44.6664C7.67957 44.2946 8.1443 44.1701 8.41647 44.4423L15.9636 51.9894Z" fill="#4EAF4E"/>
<circle cx="93.3889" cy="25.677" r="7.25703" fill="#DADADA"/>
<rect x="28.6787" y="64.4277" width="51.8211" height="8.02848" fill="#4EAF4E"/>
<path d="M26.2236 42.5454H82.9542L54.5889 25.0898L26.2236 42.5454Z" fill="#FFCC4A" stroke="#141414" stroke-width="2" stroke-linecap="round" stroke-linejoin="round"/>
<path d="M34.9521 42.5449V64.3644" stroke="#141414" stroke-width="2" stroke-linecap="round" stroke-linejoin="round"/>
<path d="M48.043 42.5449V64.3644" stroke="#141414" stroke-width="2" stroke-linecap="round" stroke-linejoin="round"/>
<path d="M61.1348 42.5449V64.3644" stroke="#141414" stroke-width="2" stroke-linecap="round" stroke-linejoin="round"/>
<path d="M74.2266 42.5449V64.3644" stroke="#141414" stroke-width="2" stroke-linecap="round" stroke-linejoin="round"/>
<path d="M28.4062 64.3652H80.7729" stroke="#141414" stroke-width="2" stroke-linecap="round" stroke-linejoin="round"/>
<path d="M24.042 73.0918H85.1364" stroke="#141414" stroke-width="2" stroke-linecap="round" stroke-linejoin="round"/>
</svg>
