<svg width="92" height="95" viewBox="0 0 92 95" fill="none" xmlns="http://www.w3.org/2000/svg">
<circle cx="20.8896" cy="73.3867" r="20.8965" fill="#DADADA"/>
<path d="M56.293 8.46353C56.4427 8.00287 57.0944 8.00287 57.2441 8.46353L58.3671 11.9199C58.434 12.1259 58.626 12.2654 58.8426 12.2654L62.4769 12.2654C62.9612 12.2654 63.1626 12.8852 62.7708 13.1699L59.8306 15.306C59.6554 15.4333 59.582 15.659 59.649 15.865L60.772 19.3214C60.9217 19.782 60.3944 20.1651 60.0026 19.8804L57.0624 17.7443C56.8872 17.6169 56.6499 17.6169 56.4747 17.7443L53.5345 19.8804C53.1427 20.1651 52.6154 19.782 52.7651 19.3214L53.8881 15.865C53.9551 15.659 53.8817 15.4333 53.7065 15.306L50.7663 13.1699C50.3745 12.8852 50.5759 12.2654 51.0602 12.2654L54.6945 12.2654C54.9111 12.2654 55.103 12.1259 55.17 11.9199L56.293 8.46353Z" fill="#141414"/>
<path d="M29.1899 75.6292C29.462 75.9014 29.3375 76.3661 28.9657 76.4657L18.9383 79.1526C18.5665 79.2522 18.2263 78.912 18.3259 78.5402L21.0128 68.5128C21.1124 68.141 21.5771 68.0165 21.8493 68.2886L29.1899 75.6292Z" fill="#4EAF4E"/>
<circle cx="72.9738" cy="30.4318" r="6.02949" fill="#DADADA"/>
<path d="M63.4217 41.1973C74.6303 42.2414 83.0752 46.6941 83.0752 52.0374C83.0752 58.1484 72.0815 63.0925 58.5083 63.0925C52.4894 63.0925 46.9619 62.1098 42.6934 60.513" fill="#4EAF4E"/>
<path d="M63.4217 41.1973C74.6303 42.2414 83.0752 46.6941 83.0752 52.0374C83.0752 58.1484 72.0815 63.0925 58.5083 63.0925C52.4894 63.0925 46.9619 62.1098 42.6934 60.513" stroke="#141414" stroke-width="2" stroke-linecap="round" stroke-linejoin="round"/>
<path d="M14.2871 37.2969V49.5803C14.2871 55.6913 25.2808 60.6354 38.854 60.6354C52.4272 60.6354 63.4209 55.6913 63.4209 49.5803V37.2969" fill="white"/>
<path d="M14.2871 37.2969V49.5803C14.2871 55.6913 25.2808 60.6354 38.854 60.6354C52.4272 60.6354 63.4209 55.6913 63.4209 49.5803V37.2969" stroke="#141414" stroke-width="2" stroke-linecap="round" stroke-linejoin="round"/>
<path d="M38.854 48.3524C52.4219 48.3524 63.4209 43.4029 63.4209 37.2973C63.4209 31.1917 52.4219 26.2422 38.854 26.2422C25.2861 26.2422 14.2871 31.1917 14.2871 37.2973C14.2871 43.4029 25.2861 48.3524 38.854 48.3524Z" fill="#FFCC4A" stroke="#141414" stroke-width="2" stroke-linecap="round" stroke-linejoin="round"/>
<path d="M29.0273 47.4316V59.7151" stroke="#141414" stroke-width="2" stroke-linecap="round" stroke-linejoin="round"/>
<path d="M33.9414 60.4206V64.3206C33.9414 70.4316 44.9351 75.3757 58.5083 75.3757C72.0815 75.3757 83.0752 70.4316 83.0752 64.3206V52.0371" stroke="#141414" stroke-width="2" stroke-linecap="round" stroke-linejoin="round"/>
<path d="M68.335 62.1719V74.4553" stroke="#141414" stroke-width="2" stroke-linecap="round" stroke-linejoin="round"/>
<path d="M48.6807 47.4316V74.4552" stroke="#141414" stroke-width="2" stroke-linecap="round" stroke-linejoin="round"/>
</svg>
