<svg width="94" height="90" viewBox="0 0 94 90" fill="none" xmlns="http://www.w3.org/2000/svg">
<circle cx="62.4984" cy="35.3841" r="23.7884" fill="#282828"/>
<path d="M32.0711 9.46352C32.2208 9.00287 32.8725 9.00287 33.0222 9.46353L34.1678 12.9892C34.2347 13.1952 34.4267 13.3347 34.6433 13.3347H38.3504C38.8348 13.3347 39.0362 13.9545 38.6443 14.2392L35.6452 16.4182C35.4699 16.5456 35.3966 16.7713 35.4636 16.9773L36.6091 20.503C36.7588 20.9636 36.2316 21.3467 35.8397 21.062L32.8406 18.883C32.6653 18.7557 32.428 18.7557 32.2528 18.883L29.2536 21.062C28.8618 21.3467 28.3345 20.9636 28.4842 20.503L29.6298 16.9773C29.6967 16.7712 29.6234 16.5456 29.4481 16.4182L26.449 14.2392C26.0571 13.9545 26.2585 13.3347 26.7429 13.3347H30.45C30.6666 13.3347 30.8586 13.1952 30.9256 12.9892L32.0711 9.46352Z" fill="#FFCC4A"/>
<path d="M12.074 71.5324C12.3461 71.8045 12.2216 72.2692 11.8498 72.3689L1.54024 75.1313C1.16845 75.2309 0.828244 74.8907 0.927863 74.5189L3.69031 64.2094C3.78992 63.8376 4.25466 63.7131 4.52682 63.9852L12.074 71.5324Z" fill="#4EAF4E"/>
<circle cx="87.497" cy="27.9824" r="5.88667" fill="white"/>
<path d="M73.8893 30.3105H26.3802C25.1875 30.3105 24.2207 31.2774 24.2207 32.47V64.8626C24.2207 66.0552 25.1875 67.0221 26.3802 67.0221H73.8893C75.0819 67.0221 76.0488 66.0552 76.0488 64.8626V32.47C76.0488 31.2774 75.0819 30.3105 73.8893 30.3105Z" fill="#181818" stroke="white" stroke-width="2" stroke-linecap="round" stroke-linejoin="round"/>
<path d="M73.8893 30.3105H26.3802C25.1875 30.3105 24.2207 31.2774 24.2207 32.47V64.8626C24.2207 66.0552 25.1875 67.0221 26.3802 67.0221H73.8893C75.0819 67.0221 76.0488 66.0552 76.0488 64.8626V32.47C76.0488 31.2774 75.0819 30.3105 73.8893 30.3105Z" fill="#181818" stroke="white" stroke-width="2" stroke-linecap="round" stroke-linejoin="round"/>
<path d="M73.8893 56.7285H26.3802C25.1875 56.7285 24.2207 56.9996 24.2207 57.334V66.4167C24.2207 66.7511 25.1875 67.0222 26.3802 67.0222H73.8893C75.0819 67.0222 76.0488 66.7511 76.0488 66.4167V57.334C76.0488 56.9996 75.0819 56.7285 73.8893 56.7285Z" fill="#4EAF4E" stroke="white" stroke-width="2" stroke-linecap="round" stroke-linejoin="round"/>
<path d="M58.7725 67.0215L67.4105 77.819" stroke="white" stroke-width="2" stroke-linecap="round" stroke-linejoin="round"/>
<path d="M41.4964 67.0215L32.8584 77.819" stroke="white" stroke-width="2" stroke-linecap="round" stroke-linejoin="round"/>
<path d="M41.4971 49.7461V56.2246" stroke="white" stroke-width="2" stroke-linecap="round" stroke-linejoin="round"/>
<path d="M50.1348 45.4277V56.2252" stroke="white" stroke-width="2" stroke-linecap="round" stroke-linejoin="round"/>
<path d="M58.7725 41.1074V56.2239" stroke="white" stroke-width="2" stroke-linecap="round" stroke-linejoin="round"/>
<path d="M50.1348 30.3105V23.832" stroke="white" stroke-width="2" stroke-linecap="round" stroke-linejoin="round"/>
</svg>
