<svg width="102" height="90" viewBox="0 0 102 90" fill="none" xmlns="http://www.w3.org/2000/svg">
<circle cx="19.8601" cy="68.9597" r="15.5573" fill="#DADADA"/>
<path d="M74.7444 20.4635C74.8941 20.0029 75.5458 20.0029 75.6955 20.4635L76.6609 23.4349C76.7279 23.6409 76.9198 23.7804 77.1365 23.7804H80.2607C80.7451 23.7804 80.9465 24.4002 80.5546 24.6849L78.027 26.5213C77.8518 26.6486 77.7785 26.8743 77.8454 27.0803L78.8108 30.0516C78.9605 30.5123 78.4333 30.8953 78.0414 30.6106L75.5138 28.7742C75.3386 28.6469 75.1013 28.6469 74.9261 28.7742L72.3985 30.6106C72.0066 30.8953 71.4794 30.5123 71.6291 30.0516L72.5945 27.0803C72.6615 26.8743 72.5881 26.6486 72.4129 26.5213L69.8853 24.6849C69.4934 24.4002 69.6948 23.7804 70.1792 23.7804H73.3034C73.5201 23.7804 73.712 23.6409 73.779 23.4349L74.7444 20.4635Z" fill="#141414"/>
<path d="M9.10881 73.5339C9.38097 73.8061 9.25645 74.2708 8.88466 74.3704L0.839385 76.5261C0.4676 76.6258 0.127393 76.2856 0.227013 75.9138L2.38274 67.8685C2.48236 67.4967 2.94709 67.3722 3.21926 67.6443L9.10881 73.5339Z" fill="#4EAF4E"/>
<circle cx="94.8134" cy="40.4042" r="7.05852" fill="#DADADA"/>
<path d="M19.6787 47.377H76.1713V73.4474C76.1713 74.552 75.2759 75.4474 74.1713 75.4474H22.6787C21.0219 75.4474 19.6787 74.1043 19.6787 72.4474V47.377Z" fill="#FFCC4A"/>
<path d="M61.7764 46.9375L19.6726 46.9375L19.6726 39.4777C19.6726 37.8209 21.0157 36.4777 22.6726 36.4777L59.7764 36.4777C60.8809 36.4777 61.7764 37.3731 61.7764 38.4777L61.7764 46.9375Z" fill="#4EAF4E" stroke="#141414" stroke-width="2"/>
<path d="M73.5246 36.2109H21.5794C20.3841 36.2109 19.415 37.18 19.415 38.3753V73.0055C19.415 74.2008 20.3841 75.1698 21.5794 75.1698H73.5246C74.72 75.1698 75.689 74.2008 75.689 73.0055V38.3753C75.689 37.18 74.72 36.2109 73.5246 36.2109Z" stroke="#141414" stroke-width="2" stroke-linecap="round" stroke-linejoin="round"/>
<path d="M58.374 66.5117H67.0316" stroke="#141414" stroke-width="2" stroke-linecap="round" stroke-linejoin="round"/>
<path d="M45.3877 66.5117H49.7165" stroke="#141414" stroke-width="2" stroke-linecap="round" stroke-linejoin="round"/>
<path d="M19.415 47.2754H75.689" stroke="#141414" stroke-width="2" stroke-linecap="round" stroke-linejoin="round"/>
</svg>
