<svg width="98" height="90" viewBox="0 0 98 90" fill="none" xmlns="http://www.w3.org/2000/svg">
<circle cx="70.7366" cy="40.8743" r="23.7884" fill="#DADADA"/>
<path d="M91.7169 65.4284C91.8666 64.9677 92.5183 64.9677 92.668 65.4284L93.5915 68.2707C93.6584 68.4767 93.8504 68.6162 94.067 68.6162H97.0556C97.54 68.6162 97.7414 69.236 97.3495 69.5207L94.9317 71.2774C94.7565 71.4047 94.6831 71.6304 94.7501 71.8364L95.6736 74.6787C95.8233 75.1394 95.296 75.5224 94.9042 75.2377L92.4863 73.4811C92.3111 73.3538 92.0738 73.3538 91.8986 73.4811L89.4807 75.2377C89.0889 75.5224 88.5616 75.1394 88.7113 74.6787L89.6348 71.8364C89.7018 71.6304 89.6284 71.4047 89.4532 71.2774L87.0353 69.5207C86.6435 69.236 86.8449 68.6162 87.3292 68.6162H90.3179C90.5345 68.6162 90.7264 68.4767 90.7934 68.2707L91.7169 65.4284Z" fill="#141414"/>
<path d="M12.0769 51.8917C12.349 52.1639 12.2245 52.6286 11.8527 52.7282L1.54317 55.4907C1.17138 55.5903 0.831174 55.2501 0.930793 54.8783L3.69323 44.5687C3.79285 44.197 4.25759 44.0724 4.52975 44.3446L12.0769 51.8917Z" fill="#4EAF4E"/>
<circle cx="45.3085" cy="19.0214" r="5.02144" fill="#DADADA"/>
<path d="M77.1664 37.7832H19.0187C17.7835 37.7832 16.7822 38.7845 16.7822 40.0197V71.3299C16.7822 72.5651 17.7835 73.5664 19.0187 73.5664H77.1664C78.4015 73.5664 79.4028 72.5651 79.4028 71.3299V40.0197C79.4028 38.7845 78.4015 37.7832 77.1664 37.7832Z" fill="#EBEBEB" stroke="#141414" stroke-width="2" stroke-linecap="round" stroke-linejoin="round"/>
<path d="M79.5098 57.7161L61.601 73.7109L76.5098 73.7109C78.1666 73.7109 79.5098 72.3678 79.5098 70.7109L79.5098 57.7161Z" fill="#4EAF4E" stroke="black"/>
<path d="M16.6777 53.5203L34.5865 37.5254H19.6777C18.0209 37.5254 16.6777 38.8685 16.6777 40.5254V53.5203Z" fill="#4EAF4E" stroke="black"/>
<path d="M48.0923 64.6201C53.0329 64.6201 57.0381 60.6149 57.0381 55.6743C57.0381 50.7337 53.0329 46.7285 48.0923 46.7285C43.1517 46.7285 39.1465 50.7337 39.1465 55.6743C39.1465 60.6149 43.1517 64.6201 48.0923 64.6201Z" fill="#FFCC4A" stroke="#141414" stroke-width="2" stroke-linecap="round" stroke-linejoin="round"/>
<path d="M61.5117 37.7832L79.4033 53.4383" stroke="#141414" stroke-width="2" stroke-linecap="round" stroke-linejoin="round"/>
<path d="M61.5117 73.5653L79.4033 57.9102" stroke="#141414" stroke-width="2" stroke-linecap="round" stroke-linejoin="round"/>
<path d="M34.6738 37.7832L16.7822 53.4383" stroke="#141414" stroke-width="2" stroke-linecap="round" stroke-linejoin="round"/>
<path d="M34.6738 73.5653L16.7822 57.9102" stroke="#141414" stroke-width="2" stroke-linecap="round" stroke-linejoin="round"/>
</svg>
