<svg width="100" height="90" viewBox="0 0 100 90" fill="none" xmlns="http://www.w3.org/2000/svg">
<circle cx="24.4622" cy="66.0365" r="23.7884" fill="#DDDDDD"/>
<path d="M80.0587 1.75259C80.2084 1.29193 80.8601 1.29193 81.0098 1.75259L81.9333 4.59493C82.0002 4.80094 82.1922 4.94042 82.4088 4.94042H85.3974C85.8818 4.94042 86.0832 5.56023 85.6913 5.84493L83.2735 7.60159C83.0983 7.72891 83.0249 7.9546 83.0919 8.16061L84.0154 11.0029C84.1651 11.4636 83.6378 11.8467 83.246 11.562L80.8281 9.8053C80.6529 9.67798 80.4156 9.67798 80.2403 9.8053L77.8225 11.562C77.4307 11.8467 76.9034 11.4636 77.0531 11.0029L77.9766 8.16061C78.0436 7.9546 77.9702 7.72891 77.795 7.60159L75.3771 5.84493C74.9853 5.56023 75.1867 4.94042 75.671 4.94042H78.6597C78.8763 4.94042 79.0682 4.80094 79.1352 4.59493L80.0587 1.75259Z" fill="#141414"/>
<path d="M30.3718 77.1691C30.644 77.4412 30.5194 77.906 30.1477 78.0056L19.8381 80.768C19.4663 80.8676 19.1261 80.5274 19.2257 80.1557L21.9882 69.8461C22.0878 69.4743 22.5525 69.3498 22.8247 69.6219L30.3718 77.1691Z" fill="#4EAF4E"/>
<circle cx="92.2785" cy="23.9912" r="7.25703" fill="#DADADA"/>
<path d="M31.9738 61.689C35.7875 68.2945 42.0691 73.1145 49.4366 75.0887C56.8041 77.0628 64.6542 76.0293 71.2597 72.2156C77.8653 68.4019 82.6853 62.1203 84.6594 54.7528C86.6336 47.3852 85.6001 39.5352 81.7864 32.9296L56.8801 47.3093L31.9738 61.689Z" fill="#FFCC4A"/>
<path d="M56.6523 46.4798V17.4375" stroke="#141414" stroke-width="2" stroke-linecap="round" stroke-linejoin="round"/>
<path d="M81.7922 31.959L31.5127 61.0013" stroke="#141414" stroke-width="2" stroke-linecap="round" stroke-linejoin="round"/>
<path d="M28.0947 51.8044C27.7645 50.049 27.6024 48.2661 27.6106 46.48C27.6068 40.4737 29.4673 34.6142 32.9353 29.7102C36.4033 24.8062 41.3079 21.0995 46.9722 19.1016V40.8833L28.0947 51.8044Z" fill="#4EAF4E" stroke="#141414" stroke-width="2" stroke-linecap="round" stroke-linejoin="round"/>
<path d="M28.0947 51.8044C27.7645 50.049 27.6024 48.2661 27.6106 46.48C27.6068 40.4737 29.4673 34.6142 32.9353 29.7102C36.4033 24.8062 41.3079 21.0995 46.9722 19.1016V40.8833L28.0947 51.8044Z" stroke="#141414" stroke-width="2" stroke-linecap="round" stroke-linejoin="round"/>
<path d="M56.6525 17.4375C61.7415 17.4381 66.7409 18.7758 71.1501 21.3168C75.5593 23.8577 79.2235 27.5126 81.7755 31.9153C84.3276 36.3181 85.678 41.3142 85.6914 46.4031C85.7049 51.492 84.3809 56.4952 81.8521 60.9114C79.3234 65.3275 75.6786 69.0017 71.2828 71.5659C66.8871 74.1301 61.8948 75.4942 56.8059 75.5217C51.7171 75.5492 46.7103 74.239 42.2872 71.7224C37.864 69.2058 34.1798 65.5711 31.6035 61.1825" stroke="#141414" stroke-width="2" stroke-linecap="round" stroke-linejoin="round"/>
</svg>
