<svg width="88" height="13" viewBox="0 0 88 13" fill="none" xmlns="http://www.w3.org/2000/svg">
<path d="M7.328 2.328C7.28 2.408 7.22667 2.46933 7.168 2.512C7.11467 2.54933 7.048 2.568 6.968 2.568C6.87733 2.568 6.77067 2.52267 6.648 2.432C6.52533 2.34133 6.37067 2.24267 6.184 2.136C6.00267 2.024 5.78133 1.92267 5.52 1.832C5.264 1.74133 4.952 1.696 4.584 1.696C4.23733 1.696 3.93067 1.744 3.664 1.84C3.40267 1.93067 3.18133 2.056 3 2.216C2.824 2.376 2.69067 2.56533 2.6 2.784C2.50933 2.99733 2.464 3.22933 2.464 3.48C2.464 3.8 2.54133 4.06667 2.696 4.28C2.856 4.488 3.064 4.66667 3.32 4.816C3.58133 4.96533 3.87467 5.096 4.2 5.208C4.53067 5.31467 4.86667 5.42667 5.208 5.544C5.55467 5.66133 5.89067 5.79467 6.216 5.944C6.54667 6.088 6.84 6.272 7.096 6.496C7.35733 6.72 7.56533 6.99467 7.72 7.32C7.88 7.64533 7.96 8.04533 7.96 8.52C7.96 9.02133 7.87467 9.49333 7.704 9.936C7.53333 10.3733 7.28267 10.7547 6.952 11.08C6.62667 11.4053 6.224 11.6613 5.744 11.848C5.26933 12.0347 4.728 12.128 4.12 12.128C3.37333 12.128 2.696 11.9947 2.088 11.728C1.48 11.456 0.96 11.0907 0.528 10.632L0.976 9.896C1.01867 9.83733 1.06933 9.78933 1.128 9.752C1.192 9.70933 1.26133 9.688 1.336 9.688C1.40533 9.688 1.48267 9.71733 1.568 9.776C1.65867 9.82933 1.76 9.89867 1.872 9.984C1.984 10.0693 2.112 10.1627 2.256 10.264C2.4 10.3653 2.56267 10.4587 2.744 10.544C2.93067 10.6293 3.14133 10.7013 3.376 10.76C3.61067 10.8133 3.87467 10.84 4.168 10.84C4.536 10.84 4.864 10.7893 5.152 10.688C5.44 10.5867 5.68267 10.4453 5.88 10.264C6.08267 10.0773 6.23733 9.856 6.344 9.6C6.45067 9.344 6.504 9.05867 6.504 8.744C6.504 8.39733 6.424 8.11467 6.264 7.896C6.10933 7.672 5.904 7.48533 5.648 7.336C5.392 7.18667 5.09867 7.06133 4.768 6.96C4.43733 6.85333 4.10133 6.74667 3.76 6.64C3.41867 6.528 3.08267 6.4 2.752 6.256C2.42133 6.112 2.128 5.92533 1.872 5.696C1.616 5.46667 1.408 5.18133 1.248 4.84C1.09333 4.49333 1.016 4.06667 1.016 3.56C1.016 3.15467 1.09333 2.76267 1.248 2.384C1.408 2.00533 1.63733 1.66933 1.936 1.376C2.24 1.08267 2.61067 0.848 3.048 0.672C3.49067 0.495999 3.99733 0.407999 4.568 0.407999C5.208 0.407999 5.78933 0.509333 6.312 0.712C6.84 0.914666 7.304 1.208 7.704 1.592L7.328 2.328ZM19.5435 10.736L19.5355 12H12.4715V0.535999H19.5355V1.8H14.0235V5.608H18.4875V6.824H14.0235V10.736H19.5435ZM27.2019 6.088C27.6499 6.088 28.0445 6.03467 28.3859 5.928C28.7325 5.816 29.0205 5.66133 29.2499 5.464C29.4845 5.26133 29.6605 5.02133 29.7779 4.744C29.8952 4.46667 29.9539 4.16 29.9539 3.824C29.9539 3.14133 29.7299 2.62667 29.2819 2.28C28.8339 1.93333 28.1619 1.76 27.2659 1.76H25.5699V6.088H27.2019ZM32.4979 12H31.1219C30.8392 12 30.6312 11.8907 30.4979 11.672L27.5219 7.576C27.4312 7.448 27.3325 7.35733 27.2259 7.304C27.1245 7.24533 26.9645 7.216 26.7459 7.216H25.5699V12H24.0259V0.535999H27.2659C27.9912 0.535999 28.6179 0.610666 29.1459 0.759999C29.6739 0.904 30.1085 1.11467 30.4499 1.392C30.7965 1.66933 31.0525 2.00533 31.2179 2.4C31.3832 2.78933 31.4659 3.22667 31.4659 3.712C31.4659 4.11733 31.4019 4.496 31.2739 4.848C31.1459 5.2 30.9592 5.51733 30.7139 5.8C30.4739 6.07733 30.1779 6.31467 29.8259 6.512C29.4792 6.70933 29.0845 6.85867 28.6419 6.96C28.8392 7.072 29.0099 7.23467 29.1539 7.448L32.4979 12ZM45.4002 0.535999L40.7282 12H39.3362L34.6642 0.535999H35.9042C36.0429 0.535999 36.1549 0.570666 36.2402 0.639999C36.3256 0.709333 36.3896 0.797333 36.4322 0.903999L39.6642 8.992C39.7336 9.17333 39.8002 9.37067 39.8642 9.584C39.9336 9.79733 39.9949 10.0213 40.0482 10.256C40.1016 10.0213 40.1576 9.79733 40.2162 9.584C40.2749 9.37067 40.3389 9.17333 40.4082 8.992L43.6322 0.903999C43.6642 0.813333 43.7256 0.730666 43.8162 0.655999C43.9122 0.575999 44.0269 0.535999 44.1602 0.535999H45.4002ZM50.7804 12H49.2284V0.535999H50.7804V12ZM64.0807 9.632C64.1661 9.632 64.2407 9.66667 64.3047 9.736L64.9207 10.4C64.4514 10.944 63.8807 11.368 63.2087 11.672C62.5421 11.976 61.7341 12.128 60.7847 12.128C59.9634 12.128 59.2167 11.9867 58.5447 11.704C57.8727 11.416 57.2994 11.016 56.8247 10.504C56.3501 9.98667 55.9821 9.368 55.7207 8.648C55.4594 7.928 55.3287 7.136 55.3287 6.272C55.3287 5.408 55.4647 4.616 55.7367 3.896C56.0087 3.176 56.3901 2.55733 56.8807 2.04C57.3767 1.52267 57.9687 1.12267 58.6567 0.839999C59.3447 0.551999 60.1047 0.407999 60.9367 0.407999C61.7527 0.407999 62.4727 0.538666 63.0967 0.799999C63.7207 1.06133 64.2701 1.416 64.7447 1.864L64.2327 2.576C64.2007 2.62933 64.1581 2.67467 64.1047 2.712C64.0567 2.744 63.9901 2.76 63.9047 2.76C63.8087 2.76 63.6914 2.70933 63.5527 2.608C63.4141 2.50133 63.2327 2.384 63.0087 2.256C62.7847 2.128 62.5047 2.01333 62.1687 1.912C61.8327 1.80533 61.4194 1.752 60.9287 1.752C60.3367 1.752 59.7954 1.856 59.3047 2.064C58.8141 2.26667 58.3901 2.56267 58.0327 2.952C57.6807 3.34133 57.4061 3.816 57.2087 4.376C57.0114 4.936 56.9127 5.568 56.9127 6.272C56.9127 6.98667 57.0141 7.624 57.2167 8.184C57.4247 8.744 57.7047 9.21867 58.0567 9.608C58.4141 9.992 58.8327 10.2853 59.3127 10.488C59.7981 10.6907 60.3207 10.792 60.8807 10.792C61.2221 10.792 61.5287 10.7733 61.8007 10.736C62.0781 10.6933 62.3314 10.6293 62.5607 10.544C62.7954 10.4587 63.0114 10.352 63.2087 10.224C63.4114 10.0907 63.6114 9.93333 63.8087 9.752C63.8994 9.672 63.9901 9.632 64.0807 9.632ZM76.1122 10.736L76.1042 12H69.0402V0.535999H76.1042V1.8H70.5922V5.608H75.0562V6.824H70.5922V10.736H76.1122ZM86.4586 2.328C86.4106 2.408 86.3573 2.46933 86.2986 2.512C86.2453 2.54933 86.1786 2.568 86.0986 2.568C86.008 2.568 85.9013 2.52267 85.7786 2.432C85.656 2.34133 85.5013 2.24267 85.3146 2.136C85.1333 2.024 84.912 1.92267 84.6506 1.832C84.3946 1.74133 84.0826 1.696 83.7146 1.696C83.368 1.696 83.0613 1.744 82.7946 1.84C82.5333 1.93067 82.312 2.056 82.1306 2.216C81.9546 2.376 81.8213 2.56533 81.7306 2.784C81.64 2.99733 81.5946 3.22933 81.5946 3.48C81.5946 3.8 81.672 4.06667 81.8266 4.28C81.9866 4.488 82.1946 4.66667 82.4506 4.816C82.712 4.96533 83.0053 5.096 83.3306 5.208C83.6613 5.31467 83.9973 5.42667 84.3386 5.544C84.6853 5.66133 85.0213 5.79467 85.3466 5.944C85.6773 6.088 85.9706 6.272 86.2266 6.496C86.488 6.72 86.696 6.99467 86.8506 7.32C87.0106 7.64533 87.0906 8.04533 87.0906 8.52C87.0906 9.02133 87.0053 9.49333 86.8346 9.936C86.664 10.3733 86.4133 10.7547 86.0826 11.08C85.7573 11.4053 85.3546 11.6613 84.8746 11.848C84.4 12.0347 83.8586 12.128 83.2506 12.128C82.504 12.128 81.8266 11.9947 81.2186 11.728C80.6106 11.456 80.0906 11.0907 79.6586 10.632L80.1066 9.896C80.1493 9.83733 80.2 9.78933 80.2586 9.752C80.3226 9.70933 80.392 9.688 80.4666 9.688C80.536 9.688 80.6133 9.71733 80.6986 9.776C80.7893 9.82933 80.8906 9.89867 81.0026 9.984C81.1146 10.0693 81.2426 10.1627 81.3866 10.264C81.5306 10.3653 81.6933 10.4587 81.8746 10.544C82.0613 10.6293 82.272 10.7013 82.5066 10.76C82.7413 10.8133 83.0053 10.84 83.2986 10.84C83.6666 10.84 83.9946 10.7893 84.2826 10.688C84.5706 10.5867 84.8133 10.4453 85.0106 10.264C85.2133 10.0773 85.368 9.856 85.4746 9.6C85.5813 9.344 85.6346 9.05867 85.6346 8.744C85.6346 8.39733 85.5546 8.11467 85.3946 7.896C85.24 7.672 85.0346 7.48533 84.7786 7.336C84.5226 7.18667 84.2293 7.06133 83.8986 6.96C83.568 6.85333 83.232 6.74667 82.8906 6.64C82.5493 6.528 82.2133 6.4 81.8826 6.256C81.552 6.112 81.2586 5.92533 81.0026 5.696C80.7466 5.46667 80.5386 5.18133 80.3786 4.84C80.224 4.49333 80.1466 4.06667 80.1466 3.56C80.1466 3.15467 80.224 2.76267 80.3786 2.384C80.5386 2.00533 80.768 1.66933 81.0666 1.376C81.3706 1.08267 81.7413 0.848 82.1786 0.672C82.6213 0.495999 83.128 0.407999 83.6986 0.407999C84.3386 0.407999 84.92 0.509333 85.4426 0.712C85.9706 0.914666 86.4346 1.208 86.8346 1.592L86.4586 2.328Z" fill="#181818"/>
</svg>
